<svg xmlns="http://www.w3.org/2000/svg" version="1.1" viewBox="-5.0 -10.0 110.0 135.0">
 <path d="m85.602 70.398v-37.789c0-6.8984-5.6094-12.512-12.512-12.512l-46.168 0.003906c-6.8984 0-12.512 5.6094-12.512 12.512v37.789c0 6.8984 5.6094 12.512 12.512 12.512h46.16c6.8984 0 12.512-5.6094 12.512-12.512zm-58.68-46.309h46.16c4.6914 0 8.5117 3.8203 8.5117 8.5117v6.6289h-63.195v-6.6289c0-4.6914 3.8203-8.5117 8.5117-8.5117zm-8.5234 46.309v-27.16h63.191v27.16c0 4.6914-3.8203 8.5117-8.5117 8.5117h-46.156c-4.6914 0-8.5117-3.8203-8.5117-8.5117z"/>
 <path d="m27.371 29.18c-1.6484 0-3 1.3398-3 3 0 1.6602 1.3398 3 3 3s3-1.3398 3-3c0-1.6602-1.3398-3-3-3z"/>
 <path d="m35.922 29.18c-1.6484 0-3 1.3398-3 3 0 1.6602 1.3398 3 3 3s3-1.3398 3-3c0-1.6602-1.3398-3-3-3zm1 3z"/>
 <path d="m44.469 29.18c-1.6484 0-3 1.3398-3 3 0 1.6602 1.3398 3 3 3s3-1.3398 3-3c0-1.6602-1.3398-3-3-3zm1.0117 3z"/>
<text x="0.0" y="117.5" font-size="5.0" font-weight="bold" font-family="Arbeit Regular, Helvetica, Arial-Unicode, Arial, Sans-serif" fill="#000000">Created by Kholila wale</text><text x="0.0" y="122.5" font-size="5.0" font-weight="bold" font-family="Arbeit Regular, Helvetica, Arial-Unicode, Arial, Sans-serif" fill="#000000">from Noun Project</text></svg>